<?xml version="1.0" standalone="no"?>
<!DOCTYPE svg PUBLIC "-//W3C//DTD SVG 20010904//EN"
 "http://www.w3.org/TR/2001/REC-SVG-20010904/DTD/svg10.dtd">
<svg version="1.0" xmlns="http://www.w3.org/2000/svg"
 width="700.000000pt" height="700.000000pt" viewBox="0 0 700.000000 700.000000"
 preserveAspectRatio="xMidYMid meet">
<metadata>
Created by potrace 1.14, written by Peter Selinger 2001-2017
</metadata>
<g transform="translate(0.000000,700.000000) scale(0.100000,-0.100000)"
fill="#000000" stroke="none">
<path d="M3390 5884 c-14 -2 -65 -9 -115 -15 -112 -14 -209 -35 -249 -56 -114
-58 -416 -306 -488 -400 -45 -59 -77 -140 -123 -308 -35 -126 -75 -347 -75
-413 0 -18 14 -67 32 -109 23 -55 29 -78 20 -81 -29 -9 -76 -59 -93 -97 -26
-59 -32 -123 -19 -195 14 -79 42 -129 106 -193 53 -51 230 -177 249 -177 13 0
40 -37 92 -125 26 -44 29 -57 24 -102 -5 -47 -13 -60 -77 -132 -42 -46 -78
-98 -87 -123 -15 -41 -87 -316 -102 -386 -10 -48 -92 -104 -312 -216 -98 -50
-198 -105 -223 -122 -25 -17 -112 -68 -195 -114 -497 -275 -582 -324 -676
-392 -37 -27 -76 -48 -87 -48 -31 0 -48 -23 -101 -134 -27 -55 -86 -177 -131
-271 -181 -374 -249 -539 -406 -984 -24 -68 -44 -134 -44 -147 0 -32 -75 -174
-198 -374 l-102 -165 303 -3 c221 -2 308 1 325 10 17 9 25 9 34 0 8 -8 48 -12
109 -12 l97 0 6 31 c12 64 6 168 -13 219 -25 65 -84 143 -134 176 -87 57 -216
79 -322 54 -22 -5 -41 -8 -42 -6 -10 10 28 147 83 296 137 372 225 582 374
885 48 99 100 208 115 243 25 56 36 68 112 122 46 33 89 57 95 54 6 -4 8 -3 5
3 -9 14 96 83 298 195 190 105 208 116 385 218 165 96 278 159 430 239 69 36
140 77 159 90 l34 24 -5 -34 c-3 -21 9 -87 33 -179 73 -282 143 -439 223 -503
53 -42 207 -144 232 -154 25 -9 15 21 -16 47 -30 25 -30 25 -20 90 17 112 17
112 -54 171 -35 30 -79 76 -97 104 -57 82 -59 84 -119 73 -29 -5 -53 -8 -55
-6 -1 2 -21 62 -42 133 -28 90 -37 135 -31 148 5 10 5 24 -2 36 -5 11 -10 30
-10 43 0 13 -5 29 -11 35 -7 7 -2 14 20 21 21 7 32 19 37 39 3 15 17 71 31
123 13 52 33 134 43 182 11 48 23 100 27 117 8 31 97 141 114 141 5 0 9 -33 9
-72 0 -70 -1 -74 -32 -101 -29 -24 -31 -29 -17 -39 14 -10 12 -19 -20 -80 -19
-37 -39 -68 -43 -68 -10 0 12 61 28 81 20 23 17 39 -7 39 -13 0 -24 -11 -33
-32 -18 -43 -39 -172 -32 -195 3 -10 12 -73 20 -139 28 -214 73 -309 182 -385
115 -79 309 -102 498 -58 124 29 240 89 217 112 -7 7 -28 1 -68 -20 -171 -91
-387 -107 -555 -42 -54 21 -128 81 -165 134 -37 54 -73 192 -89 341 -6 57 -5
63 23 95 16 19 46 56 66 83 l37 49 0 -31 c0 -17 5 -34 11 -38 23 -14 34 19 35
109 5 286 8 387 13 387 4 0 37 -29 75 -64 44 -42 65 -69 61 -77 -5 -8 -4 -10
3 -5 6 4 51 -24 99 -62 153 -120 223 -147 373 -146 156 2 314 52 397 127 12
10 26 16 33 12 6 -4 9 -1 8 7 -2 7 3 12 10 10 6 -1 12 2 12 7 0 9 18 28 113
120 54 51 67 60 67 43 0 -11 4 -22 8 -24 5 -1 3 -52 -3 -113 -10 -94 -15 -117
-41 -158 -17 -26 -34 -44 -39 -40 -4 5 -6 3 -2 -2 3 -6 -3 -22 -14 -35 -11
-14 -31 -41 -45 -60 -13 -19 -38 -53 -54 -75 -17 -22 -49 -67 -72 -100 -22
-33 -90 -126 -149 -206 -60 -80 -109 -151 -109 -158 0 -32 52 15 102 92 4 7
11 7 21 -1 15 -13 22 -5 170 169 162 193 337 435 337 467 0 33 -24 12 -70 -61
-76 -119 -231 -316 -363 -461 -22 -23 -19 -17 9 24 68 99 88 124 146 191 74
85 175 236 217 326 32 67 35 71 58 60 33 -15 42 1 13 23 -38 28 -19 33 38 9
40 -16 52 -27 52 -43 0 -11 11 -56 24 -99 27 -88 69 -300 86 -432 12 -94 21
-115 50 -115 13 0 19 -10 22 -35 2 -19 1 -35 -2 -35 -3 0 -45 -46 -92 -102
-48 -57 -104 -122 -125 -145 -21 -23 -64 -71 -96 -107 -33 -36 -64 -63 -70
-59 -5 3 -7 1 -4 -4 4 -6 -23 -41 -59 -78 -47 -47 -63 -70 -56 -77 16 -16 46
7 144 109 153 158 140 144 321 367 31 39 57 76 57 83 0 6 8 17 18 22 9 6 12
11 7 11 -10 0 -8 90 1 90 3 0 44 -21 92 -47 48 -26 121 -65 163 -87 42 -23
134 -72 205 -110 71 -38 167 -89 214 -114 148 -78 208 -112 220 -127 9 -11 10
-46 2 -146 -5 -72 -7 -139 -5 -150 8 -30 45 -33 86 -9 21 12 44 19 53 16 8 -3
13 -2 9 3 -3 5 9 12 27 16 62 12 173 50 186 62 17 16 14 17 64 -8 24 -12 67
-49 97 -83 60 -68 284 -330 332 -389 52 -63 158 -228 170 -266 7 -20 18 -45
25 -56 7 -11 29 -60 49 -109 l35 -90 -29 -30 c-17 -18 -63 -44 -107 -61 -98
-39 -103 -48 -79 -162 25 -122 80 -339 111 -440 23 -72 32 -88 63 -109 43 -29
66 -30 111 -4 64 36 197 90 224 90 6 0 15 -20 91 -206 29 -72 55 -142 58 -155
2 -13 5 29 6 94 0 64 -3 125 -9 135 -11 19 -81 188 -212 507 -50 121 -122 294
-160 385 -39 91 -80 188 -92 215 -58 139 -180 303 -447 600 -171 191 -159 180
-306 256 -76 40 -142 75 -148 79 -5 4 -64 36 -130 70 -66 35 -178 96 -250 136
-71 39 -182 99 -245 131 -63 33 -194 102 -290 153 -96 52 -189 101 -207 110
-27 12 -32 21 -33 48 0 49 -36 220 -71 341 -17 58 -34 123 -38 145 -6 41 -7
41 -95 76 l-88 35 6 53 c11 97 32 117 220 209 176 88 254 138 305 199 102 125
114 348 21 414 -37 26 -97 38 -144 28 -21 -5 -40 -7 -41 -6 -2 2 26 61 62 132
l64 130 2 165 3 166 -37 76 c-69 142 -351 539 -403 566 -17 9 -76 48 -131 86
-144 101 -184 113 -425 121 -107 3 -211 8 -230 10 -19 2 -46 2 -60 0z m500
-96 c79 -16 322 -178 383 -254 48 -61 213 -311 266 -402 l59 -103 7 -157 6
-157 -72 -137 c-40 -76 -75 -136 -77 -134 -2 2 4 43 14 91 12 61 14 89 6 94
-7 4 -8 20 0 55 20 92 -53 393 -113 468 -57 71 -169 239 -169 253 0 7 -24 27
-52 43 -29 16 -96 53 -148 82 -52 29 -111 65 -130 80 -64 48 -57 47 -436 80
-122 10 -239 16 -260 13 -44 -7 -84 -32 -234 -147 -179 -137 -226 -190 -307
-351 -99 -195 -154 -337 -158 -405 -2 -36 9 -103 31 -197 39 -162 39 -167 19
-156 -18 11 -61 89 -94 176 l-27 68 22 132 c38 226 114 475 167 542 69 88 360
329 463 383 28 15 99 31 204 47 102 15 545 10 630 -7z m-562 -248 c2 0 0 -4
-3 -10 -4 -6 1 -7 11 -3 11 4 15 3 10 -5 -3 -6 -1 -14 5 -18 8 -5 9 -3 4 6 -6
9 -2 10 16 5 13 -4 28 -11 34 -16 12 -12 91 -11 137 1 31 9 53 6 140 -20 57
-17 152 -49 211 -70 60 -22 116 -40 125 -40 10 0 45 -22 79 -50 57 -46 61 -52
68 -102 13 -106 21 -120 83 -166 56 -41 59 -45 82 -123 20 -70 23 -99 21 -229
-2 -140 -6 -185 -31 -305 -6 -27 -17 -106 -25 -175 -18 -147 -40 -274 -61
-350 -31 -108 -139 -237 -324 -388 -140 -115 -242 -159 -387 -168 -74 -4 -114
-2 -163 11 -82 21 -175 52 -220 75 -50 26 -121 90 -114 102 4 7 2 8 -4 4 -17
-10 -181 158 -233 239 -60 93 -80 164 -129 465 -5 36 -20 112 -31 170 -30 149
-27 220 27 657 5 40 15 62 46 99 43 52 68 98 87 156 18 53 78 101 211 166 141
68 252 103 295 91 16 -5 31 -9 33 -9z m-815 -1126 c45 -39 97 -179 118 -319
25 -166 25 -167 -7 -155 -35 14 -166 105 -190 133 -80 93 -105 170 -85 263 17
73 46 104 98 104 26 -1 47 -9 66 -26z m2151 -44 c74 -28 86 -145 28 -263 -44
-89 -87 -123 -267 -213 -82 -42 -156 -80 -162 -86 -18 -15 -16 -6 16 75 16 39
39 99 51 132 30 79 37 85 35 30 -2 -40 1 -46 22 -51 31 -8 81 13 100 42 20 32
13 76 -15 90 l-23 11 36 38 c34 37 36 37 55 20 10 -9 20 -29 22 -44 4 -38 32
-34 36 6 2 22 -3 37 -20 52 -52 49 -90 36 -159 -52 -23 -28 -45 -53 -50 -55
-13 -5 60 191 79 210 20 20 137 67 169 68 12 0 33 -4 47 -10z m-204 -286 c0
-16 -23 -44 -35 -44 -18 0 -18 5 -5 31 10 17 40 27 40 13z m-720 -1317 c0 -2
-12 -14 -27 -28 l-28 -24 24 28 c23 25 31 32 31 24z m-1017 -391 c20 -29 63
-78 96 -107 56 -49 61 -57 60 -94 -1 -50 -11 -87 -25 -92 -6 -2 -20 5 -32 14
-12 10 -44 33 -71 52 -53 38 -81 80 -125 184 -28 66 -28 68 -10 82 39 30 69
19 107 -39z m2915 -139 c21 -25 -27 -55 -68 -42 -19 6 -27 35 -13 48 11 12 70
8 81 -6z m993 -1364 c6 -21 25 -64 41 -96 23 -46 27 -62 18 -73 -18 -21 -46
-1 -74 54 -50 101 -56 152 -17 152 14 0 23 -11 32 -37z m156 -289 c7 -19 -20
-49 -36 -40 -12 8 -15 39 -4 49 12 12 33 7 40 -9z m-6106 -255 c31 -16 79 -89
79 -121 0 -45 -33 -37 -64 17 -15 25 -40 52 -56 60 -29 15 -38 34 -23 48 10
10 42 8 64 -4z"/>
<path d="M2819 5333 c-13 -16 -12 -17 4 -4 16 13 21 21 13 21 -2 0 -10 -8 -17
-17z"/>
<path d="M2845 5108 c-61 -31 -69 -53 -27 -70 35 -15 59 -17 285 -24 205 -6
208 -5 164 49 -14 18 -37 32 -62 37 -112 23 -157 29 -227 32 -69 3 -84 0 -133
-24z"/>
<path d="M3305 5060 c-7 -12 2 -30 16 -30 12 0 12 27 0 35 -5 3 -12 1 -16 -5z"/>
<path d="M3638 5063 c-27 -7 -22 -29 15 -66 28 -27 52 -38 143 -61 60 -16 165
-39 233 -52 69 -13 137 -27 151 -33 26 -9 60 1 60 18 0 19 -65 103 -89 115
-32 17 -146 39 -306 61 -161 22 -187 24 -207 18z"/>
<path d="M3750 4771 c0 -4 25 -11 56 -14 42 -4 79 -19 152 -60 53 -30 116 -64
139 -76 57 -28 113 -79 113 -101 0 -10 -8 -32 -17 -49 -37 -63 21 -45 62 19
14 22 25 46 25 54 0 35 -273 194 -386 225 -47 13 -144 15 -144 2z"/>
<path d="M3304 4756 c-4 -9 0 -24 8 -34 44 -51 65 -205 38 -277 -10 -25 -2
-39 17 -27 18 12 36 85 37 148 0 66 -34 153 -74 189 -18 16 -20 16 -26 1z"/>
<path d="M2960 4737 c-56 -19 -77 -33 -150 -104 -88 -86 -95 -108 -34 -101 21
2 28 8 26 21 -8 48 179 198 220 176 9 -5 27 -9 40 -9 13 0 41 -9 62 -21 l38
-20 -22 30 c-40 58 -74 63 -180 28z"/>
<path d="M3645 4750 c-16 -7 -17 -9 -3 -9 9 -1 20 4 23 9 7 11 7 11 -20 0z"/>
<path d="M3807 4660 c-31 -25 -34 -45 -9 -59 15 -10 15 -11 -6 -17 -15 -4 -21
-12 -18 -21 3 -8 6 -21 6 -28 0 -7 12 -27 26 -44 53 -63 127 -30 127 57 0 44
-37 122 -57 122 -8 0 -21 2 -28 5 -8 3 -26 -4 -41 -15z"/>
<path d="M3080 4630 c-23 -23 -25 -36 -7 -43 7 -3 5 -6 -5 -6 -21 -1 -23 -26
-7 -68 19 -50 68 -59 95 -18 31 47 1 155 -43 155 -7 0 -22 -9 -33 -20z"/>
<path d="M2830 4425 c0 -29 28 -45 40 -24 11 17 -6 49 -25 49 -9 0 -15 -10
-15 -25z"/>
<path d="M4070 4405 c0 -8 5 -15 10 -15 6 0 10 7 10 15 0 8 -4 15 -10 15 -5 0
-10 -7 -10 -15z"/>
<path d="M4271 4404 c0 -11 3 -14 6 -6 3 7 2 16 -1 19 -3 4 -6 -2 -5 -13z"/>
<path d="M3845 4390 c-8 -12 20 -24 35 -15 6 3 8 11 5 16 -8 12 -32 12 -40 -1z"/>
<path d="M3040 4379 c0 -5 9 -9 20 -9 11 0 20 2 20 4 0 2 -9 6 -20 9 -11 3
-20 1 -20 -4z"/>
<path d="M3295 4370 c-12 -19 33 -150 52 -150 17 0 16 6 -11 104 -13 50 -28
67 -41 46z"/>
<path d="M3665 3903 c-27 -8 -88 -28 -135 -43 -47 -15 -110 -33 -140 -40 -81
-18 -80 -18 -80 -35 0 -23 45 -19 146 15 49 16 98 34 109 39 11 6 45 20 75 32
30 12 62 28 70 36 17 16 18 16 -45 -4z"/>
<path d="M2414 4276 c-3 -7 -6 -36 -7 -63 -2 -46 -1 -49 21 -45 17 3 22 10 20
26 -1 11 2 27 6 35 6 10 5 12 -2 7 -7 -4 -12 -2 -12 3 0 19 20 12 57 -22 25
-24 34 -39 30 -51 -4 -10 -11 -15 -15 -12 -5 3 -7 -12 -5 -32 4 -53 6 -61 12
-60 3 1 23 -7 43 -17 30 -15 40 -16 52 -6 20 17 9 41 -19 41 -13 0 -31 7 -40
16 -23 23 -9 31 15 9 15 -14 23 -16 32 -7 18 18 1 56 -48 111 -64 72 -127 101
-140 67z"/>
<path d="M3753 3232 c-6 -4 -39 -55 -72 -112 -33 -58 -64 -104 -70 -103 -6 2
-8 -4 -4 -13 3 -8 -4 -28 -15 -44 -29 -39 -39 -80 -19 -80 9 0 19 5 22 10 4 6
11 7 17 4 6 -4 8 -2 4 4 -3 6 2 26 13 44 11 18 34 60 52 93 17 33 40 72 51 87
10 15 24 41 29 58 6 16 15 30 20 30 5 0 9 7 9 15 0 16 -18 19 -37 7z"/>
<path d="M2702 2863 c-8 -15 -9 -24 -1 -28 15 -10 21 0 17 27 l-3 23 -13 -22z"/>
<path d="M4067 2849 c-204 -48 -527 -398 -527 -572 0 -83 29 -116 102 -117 95
0 208 63 341 189 218 208 303 425 194 491 -35 21 -52 23 -110 9z m25 -69 c16
-16 28 -38 26 -47 -4 -24 -39 -29 -51 -8 -5 9 -24 23 -43 31 -51 21 -45 54 8
54 19 0 40 -10 60 -30z m57 -134 c15 -18 3 -46 -20 -46 -22 0 -34 22 -25 45 7
19 30 19 45 1z"/>
<path d="M3150 2835 c0 -27 101 -168 112 -157 10 10 -3 38 -57 124 -30 47 -55
62 -55 33z"/>
<path d="M2937 2403 c-22 -6 -21 -11 34 -205 75 -263 116 -341 186 -354 18 -3
36 -10 38 -15 3 -4 1 -66 -5 -136 -28 -347 -32 -549 -31 -1395 1 -283 2 -298
20 -298 17 0 18 25 19 688 1 383 6 738 12 802 6 63 13 163 16 223 l6 107 86 0
c48 0 103 4 122 9 19 5 51 11 71 14 l35 5 14 -90 c10 -71 11 -160 4 -417 -15
-577 -8 -1341 13 -1341 21 0 26 90 17 290 -5 107 -7 344 -5 525 8 527 7 936
-2 993 -6 43 -5 52 8 52 31 0 195 73 220 98 31 31 18 55 -18 32 -196 -124
-585 -173 -674 -84 -14 14 -22 31 -19 40 3 8 2 13 -3 10 -11 -7 -42 75 -81
215 -17 63 -39 139 -48 169 -8 30 -15 58 -14 63 1 4 1 6 0 6 -2 -1 -11 -3 -21
-6z"/>
<path d="M4592 2134 c-12 -8 -33 -36 -46 -62 -58 -115 -164 -446 -219 -687
-33 -140 -36 -170 -19 -170 14 0 38 56 47 110 3 17 8 44 11 60 6 33 41 161 81
295 14 46 26 91 28 100 2 8 24 69 50 135 26 66 49 128 52 137 3 10 10 15 16
11 6 -3 7 -1 3 5 -4 7 4 23 18 37 42 42 26 63 -22 29z"/>
<path d="M1630 1777 c0 -2 16 -34 35 -71 19 -38 35 -76 35 -85 0 -9 4 -21 9
-26 12 -12 99 -231 130 -327 22 -67 36 -82 48 -53 9 24 -99 316 -178 483 -30
62 -44 82 -59 82 -11 0 -20 -1 -20 -3z"/>
<path d="M3317 1519 c-28 -16 -47 -71 -40 -113 11 -67 77 -87 132 -40 44 37
43 88 -2 132 -34 33 -59 39 -90 21z m71 -49 c27 -26 28 -51 3 -74 -29 -27 -65
-17 -69 18 -4 32 15 76 33 76 6 0 21 -9 33 -20z"/>
<path d="M5785 1507 c-34 -52 -182 -554 -168 -568 22 -22 41 20 84 188 13 50
27 89 31 87 4 -3 5 2 2 10 -6 16 70 251 88 273 10 13 3 33 -12 33 -5 0 -16
-11 -25 -23z"/>
<path d="M6136 929 c-3 -17 -6 -62 -6 -100 0 -77 -32 -305 -55 -391 -8 -32
-21 -88 -30 -125 -8 -38 -28 -120 -45 -183 -35 -134 -34 -130 -16 -130 17 0
23 18 70 205 46 183 83 356 91 425 4 30 11 69 15 85 5 17 10 77 12 135 3 90 1
105 -13 108 -11 2 -18 -7 -23 -29z"/>
<path d="M1634 897 c-53 -26 -94 -70 -114 -122 -20 -51 -15 -149 10 -199 54
-112 195 -168 305 -122 102 43 171 171 151 279 -10 52 -63 124 -113 154 -67
39 -169 43 -239 10z"/>
<path d="M931 670 c-10 -6 -10 -13 2 -36 22 -43 100 -281 142 -434 57 -206 54
-200 76 -200 10 0 19 1 19 3 0 33 -106 395 -158 539 -45 125 -56 144 -81 128z"/>
<path d="M4196 648 c-19 -10 -36 -24 -39 -32 -10 -24 59 -295 132 -521 l29
-90 116 -3 c106 -2 116 -1 116 15 -1 64 -136 599 -158 625 -21 25 -152 29
-196 6z m218 -195 c34 -95 36 -116 14 -121 -22 -4 -53 44 -74 116 -18 59 -14
82 14 82 14 0 25 -18 46 -77z"/>
<path d="M3283 428 c-28 -30 -39 -73 -21 -85 7 -4 22 -25 32 -46 11 -20 29
-40 41 -43 79 -20 119 3 131 75 8 43 -58 103 -126 116 -29 5 -39 2 -57 -17z
m125 -51 c24 -22 29 -66 10 -85 -20 -20 -65 -14 -82 10 -19 27 -21 79 -4 96
15 15 46 6 76 -21z"/>
<path d="M2648 393 c-76 -88 -33 -232 75 -250 74 -12 127 38 127 119 0 42 -36
106 -73 128 -41 25 -108 26 -129 3z"/>
<path d="M2153 310 c-48 -19 -58 -87 -17 -119 53 -41 114 -13 114 52 0 51 -50
86 -97 67z"/>
<path d="M5016 297 c-14 -10 -21 -41 -32 -143 -8 -71 -16 -135 -19 -141 -3
-10 19 -13 90 -13 109 0 96 -13 119 130 8 48 10 94 6 106 -6 14 -32 31 -74 48
-78 31 -68 29 -90 13z"/>
<path d="M2508 113 c-8 -10 -24 -38 -36 -63 l-22 -45 62 -3 c39 -2 64 1 68 9
6 8 9 8 14 0 4 -6 28 -11 54 -10 l47 0 -37 14 c-41 15 -91 46 -85 52 6 5 139
-45 151 -57 6 -6 20 -10 33 -10 20 0 21 2 12 24 -13 27 -54 47 -149 72 -36 9
-69 21 -74 25 -14 13 -21 11 -38 -8z"/>
<path d="M6600 82 c-8 -3 -20 -11 -28 -18 -10 -11 -9 -15 8 -24 11 -6 20 -17
20 -25 0 -8 9 -15 20 -15 14 0 20 7 20 23 -1 32 -23 65 -40 59z"/>
<path d="M5441 41 c-20 -36 -13 -41 55 -41 68 0 75 9 26 34 -53 27 -70 28 -81
7z"/>
</g>
</svg>
